<?xml version="1.0" encoding="utf-8"?>
<!-- Generator: Adobe Illustrator 19.0.0, SVG Export Plug-In . SVG Version: 6.00 Build 0)  -->
<svg version="1.1" id="Capa_1" xmlns="http://www.w3.org/2000/svg" xmlns:xlink="http://www.w3.org/1999/xlink" x="0px" y="0px"
	 viewBox="0 0 32 32" style="enable-background:new 0 0 32 32;" xml:space="preserve">
<style type="text/css">
	.st0{fill-rule:evenodd;clip-rule:evenodd;fill:url(#XMLID_17_);}
	.st1{fill-rule:evenodd;clip-rule:evenodd;fill:url(#XMLID_18_);}
	.st2{fill-rule:evenodd;clip-rule:evenodd;fill:url(#XMLID_19_);}
	.st3{fill-rule:evenodd;clip-rule:evenodd;fill:#C12A23;}
	.st4{fill-rule:evenodd;clip-rule:evenodd;fill:#FEFEFE;}
	.st5{fill:#D78B30;}
	.st6{fill:#FEFEFE;}
	.st7{fill-rule:evenodd;clip-rule:evenodd;fill:#C12A22;}
	.st8{fill:#C12A23;}
	.st9{font-family:'Tahoma';}
	.st10{font-size:1.1631px;}
</style>
<g id="XMLID_45_">
	<g id="XMLID_76_">
		<radialGradient id="XMLID_17_" cx="13.1438" cy="2.985" r="16.9751" gradientUnits="userSpaceOnUse">
			<stop  offset="0" style="stop-color:#D4B735"/>
			<stop  offset="0.53" style="stop-color:#9A161C"/>
			<stop  offset="0.99" style="stop-color:#871A1F"/>
			<stop  offset="1" style="stop-color:#9A161C"/>
		</radialGradient>
		<path id="XMLID_43_" class="st0" d="M15.9,1.8c-4.7,0-8.6,3.8-8.6,8.6c0,4.7,3.8,8.6,8.6,8.6s8.6-3.8,8.6-8.6c0,0,0,0,0,0
			c0,3.3-2.6,6-5.9,6c-3.3,0-5.9-2.7-5.9-6c0-3.3,2.6-6,5.9-6c3.2,0,5.8,2.6,5.9,5.8C24.4,5.5,20.6,1.8,15.9,1.8z"/>
		<radialGradient id="XMLID_18_" cx="14.116" cy="6.1438" r="8.6593" gradientUnits="userSpaceOnUse">
			<stop  offset="0" style="stop-color:#9B5D23"/>
			<stop  offset="1" style="stop-color:#C9A02E"/>
		</radialGradient>
		<path id="XMLID_41_" class="st1" d="M18.6,4.3c3.3,0,5.9,2.7,5.9,6c0,3.3-2.6,6-5.9,6c-2.1,0-3.9-1.1-5-2.8
			c0.5,0.3,1.1,0.5,1.8,0.5c2,0,3.7-1.7,3.7-3.7c0-2-1.7-3.7-3.7-3.7c-0.6,0-1.2,0.2-1.8,0.5C14.7,5.4,16.5,4.3,18.6,4.3z"/>
		<radialGradient id="XMLID_19_" cx="14.2119" cy="10.1178" r="9.1429" gradientUnits="userSpaceOnUse">
			<stop  offset="0" style="stop-color:#D2B234"/>
			<stop  offset="7.000000e-002" style="stop-color:#BC8627"/>
			<stop  offset="0.56" style="stop-color:#E0CF45"/>
			<stop  offset="1" style="stop-color:#EADF54"/>
		</radialGradient>
		<path id="XMLID_40_" class="st2" d="M17.5,4.4c2.7,0,5.1,2.6,5.1,5.9c0,3.3-2.2,6-5,6c-1.6-0.2-3.1-1.2-4.1-2.7
			c0.5,0.3,1.1,0.5,1.8,0.5c2,0,3.7-1.7,3.7-3.7c0-2-1.7-3.7-3.7-3.7c-0.6,0-1.2,0.2-1.8,0.4C14.5,5.6,16,4.7,17.5,4.4z"/>
	</g>
	<path id="XMLID_39_" class="st3" d="M3.6,20.9c0.5,0,1,0,1.6,0c0,0.5,0,1.1,0,1.6c0.5,0,0.9,0,1.4,0c-0.2,0.4-0.4,0.9-0.7,1.3
		c-0.2,0-0.5,0-0.7,0c0,0.7,0,1.6,0,2s0.2,0.5,0.4,0.4L6,26l0.4,0.9l-0.5,0.3c-0.2,0.1-0.5,0.1-0.7,0.1c-0.5,0-0.9-0.2-1.2-0.4
		c-0.3-0.2-0.4-0.5-0.4-0.9C3.6,24.3,3.6,22.6,3.6,20.9z"/>
	<path id="XMLID_38_" class="st3" d="M8.2,25.5c0.8,0,1.6-0.2,2.1-0.7c0.4-0.4,0.5-1.1,0-1.8c-0.6-0.6-1.3-0.7-2.1-0.4
		c-0.9,0.4-1.2,1-1.4,1.7c-0.2,1,0,1.8,0.6,2.5c0.3,0.3,0.8,0.5,1.4,0.5c0.8,0,1.2-0.1,1.9-0.4c-0.1-0.3-0.2-0.7-0.4-1
		C10,26,9.7,26.1,9.5,26.2c-0.4,0.2-0.8,0.1-1.1-0.3C8.2,25.8,8.2,25.7,8.2,25.5z"/>
	<path id="XMLID_37_" class="st4" d="M8.1,24.6c0-0.3,0.1-0.7,0.4-0.9c0.2-0.2,0.4-0.3,0.7-0.1c0.2,0.2,0.1,0.5-0.1,0.7
		C8.7,24.5,8.4,24.6,8.1,24.6z"/>
	<path id="XMLID_36_" class="st3" d="M21.1,25.5c0.8,0,1.6-0.2,2.1-0.7c0.4-0.4,0.5-1.1,0-1.8c-0.6-0.6-1.3-0.7-2.1-0.4
		c-0.9,0.4-1.2,1-1.4,1.7c-0.2,1,0,1.8,0.6,2.5c0.3,0.3,0.8,0.5,1.4,0.5c0.8,0,1.2-0.1,1.9-0.4c-0.1-0.3-0.2-0.7-0.4-1
		c-0.3,0.1-0.5,0.2-0.8,0.3c-0.4,0.2-0.8,0.1-1.1-0.3C21.1,25.8,21.1,25.7,21.1,25.5z"/>
	<path id="XMLID_35_" class="st4" d="M21,24.6c0-0.3,0.1-0.7,0.4-0.9c0.2-0.2,0.4-0.3,0.7-0.1c0.2,0.2,0.1,0.5-0.1,0.7
		C21.6,24.5,21.3,24.6,21,24.6z"/>
	<path id="XMLID_34_" class="st3" d="M11.2,22.5c0,1.6,0,3.2,0,4.9c0.5,0,1.1,0,1.6,0c0-1.1,0-2.1,0-3.2c0.2-0.3,0.4-0.3,0.7-0.3
		c0.3,0,0.5,0.1,0.7,0.3c0-0.4,0-0.9,0-1.3c-0.2-0.2-0.4-0.3-0.7-0.3c-0.6,0-0.8,0.3-1,0.6l0-0.6C12.1,22.5,11.7,22.5,11.2,22.5z"/>
	<path id="XMLID_33_" class="st3" d="M24.1,20.9c0.5,0,1.1,0,1.6,0c0,1.6,0,3.3,0,4.9c0,0.3,0.2,0.5,0.4,0.4l0.4-0.1L27,27l-0.5,0.3
		c-0.2,0.1-0.5,0.1-0.8,0.1c-0.5,0-0.9-0.2-1.2-0.4c-0.3-0.2-0.4-0.5-0.4-0.9C24.1,24.3,24.1,22.6,24.1,20.9z"/>
	<path id="XMLID_32_" class="st3" d="M16.4,29.1c-0.5,0-1.1,0-1.6,0c0-2.1,0-4.2,0-6.3c0.5-0.2,1-0.3,1.6-0.3c1.4,0,2.1,0.2,2.5,1.4
		c0.2,0.9,0.1,1.8-0.4,2.7c-0.3,0.4-0.8,0.7-1.3,0.7c-0.3,0-0.6,0-0.8-0.1C16.4,27.8,16.4,28.4,16.4,29.1z"/>
	<path id="XMLID_31_" class="st4" d="M16.4,23.7c0.2-0.1,0.5-0.1,0.7,0c0.3,0.3,0.4,0.7,0.4,1.1c0,0.5-0.1,0.8-0.4,1.1
		c-0.2,0.2-0.5,0.2-0.8,0.1C16.4,25.3,16.4,24.5,16.4,23.7z"/>
	<g id="XMLID_50_">
		<path id="XMLID_27_" class="st5" d="M25.5,30.4c0-0.3,0.1-0.5,0.2-0.6c0.1-0.1,0.3-0.2,0.5-0.2c0.2,0,0.4,0.1,0.5,0.2
			c0.1,0.1,0.2,0.3,0.2,0.6c0,0.2,0,0.4-0.1,0.5c-0.1,0.1-0.1,0.2-0.3,0.3c-0.1,0.1-0.2,0.1-0.4,0.1c-0.2,0-0.4-0.1-0.5-0.2
			C25.6,30.9,25.5,30.7,25.5,30.4z"/>
		<rect id="XMLID_26_" x="25" y="29.6" class="st5" width="0.3" height="1.6"/>
		<rect id="XMLID_23_" x="25" y="29" class="st5" width="0.3" height="0.3"/>
		<path id="XMLID_20_" class="st5" d="M24.5,30.6l0.3,0c0,0.2-0.1,0.3-0.2,0.4c-0.1,0.1-0.3,0.2-0.4,0.2c-0.2,0-0.4-0.1-0.5-0.2
			c-0.1-0.1-0.2-0.3-0.2-0.6c0-0.2,0-0.3,0.1-0.4c0.1-0.1,0.1-0.2,0.3-0.3c0.1-0.1,0.2-0.1,0.4-0.1c0.2,0,0.3,0,0.4,0.1
			c0.1,0.1,0.2,0.2,0.2,0.4l-0.3,0c0-0.1-0.1-0.2-0.1-0.2c-0.1-0.1-0.1-0.1-0.2-0.1c-0.1,0-0.2,0-0.3,0.1c-0.1,0.1-0.1,0.2-0.1,0.5
			c0,0.2,0,0.4,0.1,0.5C23.9,31,24,31,24.1,31c0.1,0,0.2,0,0.3-0.1C24.4,30.8,24.5,30.7,24.5,30.6z"/>
		<rect id="XMLID_15_" x="22.8" y="29.6" class="st5" width="0.3" height="1.6"/>
		<rect id="XMLID_14_" x="22.8" y="29" class="st5" width="0.3" height="0.3"/>
		<path id="XMLID_13_" class="st5" d="M21.8,31.2l-0.6-1.6h0.3l0.3,0.9c0,0.1,0.1,0.2,0.1,0.3c0-0.1,0.1-0.2,0.1-0.3l0.3-1h0.3
			L22,31.2H21.8z"/>
		<path id="XMLID_12_" class="st5" d="M20.3,31.2v-1.6h0.2v0.2c0.1-0.1,0.1-0.2,0.2-0.2c0.1,0,0.1-0.1,0.2-0.1c0.1,0,0.2,0,0.3,0.1
			l-0.1,0.2c-0.1,0-0.1-0.1-0.2-0.1c-0.1,0-0.1,0-0.2,0.1c0,0-0.1,0.1-0.1,0.1c0,0.1,0,0.2,0,0.3v0.8H20.3z"/>
		<path id="XMLID_11_" class="st5" d="M19.8,31C19.8,31,19.8,31.1,19.8,31c-0.2,0.1-0.3,0.2-0.5,0.2c-0.2,0-0.4-0.1-0.5-0.2
			c-0.1-0.1-0.2-0.3-0.2-0.6c0-0.3,0.1-0.5,0.2-0.6c0.1-0.1,0.3-0.2,0.5-0.2c0.2,0,0.4,0.1,0.5,0.2c0.1,0.1,0.2,0.3,0.2,0.6
			c0,0,0,0,0,0.1h-1.2c0,0.2,0.1,0.3,0.1,0.4c0.1,0.1,0.2,0.1,0.3,0.1c0.1,0,0.2,0,0.2-0.1c0,0,0.1-0.1,0.1-0.1L19.8,31z"/>
		<path id="XMLID_10_" class="st5" d="M17.1,30.7l0.3,0c0,0.1,0.1,0.2,0.1,0.2c0.1,0.1,0.2,0.1,0.3,0.1c0.1,0,0.2,0,0.3-0.1
			c0.1,0,0.1-0.1,0.1-0.2c0-0.1,0-0.1-0.1-0.1c0,0-0.1-0.1-0.3-0.1c-0.2,0-0.3-0.1-0.4-0.1c-0.1,0-0.1-0.1-0.2-0.1
			c0-0.1-0.1-0.1-0.1-0.2c0-0.1,0-0.1,0-0.2c0-0.1,0.1-0.1,0.1-0.1c0,0,0.1-0.1,0.2-0.1c0.1,0,0.1,0,0.2,0c0.1,0,0.2,0,0.3,0.1
			c0.1,0,0.2,0.1,0.2,0.1c0,0.1,0.1,0.1,0.1,0.2l-0.3,0c0-0.1,0-0.1-0.1-0.2c-0.1,0-0.1-0.1-0.2-0.1c-0.1,0-0.2,0-0.3,0.1
			c-0.1,0-0.1,0.1-0.1,0.1c0,0,0,0.1,0,0.1c0,0,0.1,0.1,0.1,0.1c0,0,0.1,0,0.2,0.1c0.2,0.1,0.3,0.1,0.4,0.1c0.1,0,0.1,0.1,0.2,0.1
			c0,0.1,0.1,0.1,0.1,0.2c0,0.1,0,0.2-0.1,0.2c-0.1,0.1-0.1,0.1-0.2,0.2c-0.1,0-0.2,0.1-0.3,0.1c-0.2,0-0.4,0-0.5-0.1
			C17.2,31,17.1,30.9,17.1,30.7z"/>
		<path id="XMLID_9_" class="st5" d="M15.7,31.2V31c-0.1,0.2-0.3,0.3-0.5,0.3c-0.1,0-0.2,0-0.3-0.1c-0.1,0-0.1-0.1-0.2-0.1
			c0-0.1-0.1-0.1-0.1-0.2c0-0.1,0-0.1,0-0.2v-1h0.3v0.9c0,0.1,0,0.2,0,0.3c0,0.1,0.1,0.1,0.1,0.2c0.1,0,0.1,0.1,0.2,0.1
			c0.1,0,0.2,0,0.2-0.1c0.1,0,0.1-0.1,0.1-0.2c0-0.1,0-0.2,0-0.3v-0.8h0.3v1.6H15.7z"/>
		<path id="XMLID_8_" class="st5" d="M14.4,30.9l0,0.2c-0.1,0-0.1,0-0.2,0c-0.1,0-0.2,0-0.2,0c-0.1,0-0.1-0.1-0.1-0.1
			c0,0,0-0.2,0-0.3v-0.9h-0.2v-0.2h0.2v-0.4l0.3-0.2v0.5h0.3v0.2h-0.3v0.9c0,0.1,0,0.1,0,0.1c0,0,0,0,0,0.1c0,0,0.1,0,0.1,0
			C14.3,31,14.4,31,14.4,30.9z"/>
		<path id="XMLID_7_" class="st5" d="M12.3,31c-0.1,0.1-0.2,0.1-0.3,0.2c-0.1,0-0.2,0.1-0.3,0.1c-0.2,0-0.3,0-0.4-0.1
			c-0.1-0.1-0.1-0.2-0.1-0.3c0-0.1,0-0.1,0.1-0.2c0-0.1,0.1-0.1,0.1-0.2c0.1,0,0.1-0.1,0.2-0.1c0.1,0,0.1,0,0.2,0
			c0.2,0,0.4-0.1,0.5-0.1c0,0,0-0.1,0-0.1c0-0.1,0-0.2-0.1-0.2c-0.1-0.1-0.2-0.1-0.3-0.1c-0.1,0-0.2,0-0.3,0.1
			c-0.1,0-0.1,0.1-0.1,0.2l-0.3,0c0-0.1,0.1-0.2,0.1-0.3c0.1-0.1,0.1-0.1,0.2-0.2c0.1,0,0.2-0.1,0.4-0.1c0.1,0,0.2,0,0.3,0
			c0.1,0,0.1,0.1,0.2,0.1c0,0,0.1,0.1,0.1,0.2c0,0,0,0.1,0,0.2v0.4c0,0.2,0,0.4,0,0.5c0,0.1,0,0.1,0.1,0.2h-0.3
			C12.4,31.1,12.4,31.1,12.3,31z"/>
		<path id="XMLID_6_" class="st6" d="M25.8,30.4c0,0.2,0,0.3,0.1,0.4c0.1,0.1,0.2,0.1,0.3,0.1c0.1,0,0.2-0.1,0.3-0.2
			c0.1-0.1,0.1-0.3,0.1-0.5c0-0.2,0-0.3-0.1-0.4c-0.1-0.1-0.2-0.1-0.3-0.1c-0.1,0-0.2,0-0.3,0.1C25.9,30.1,25.8,30.2,25.8,30.4z"/>
		<path id="XMLID_5_" class="st6" d="M18.9,30.3h0.9c0-0.1,0-0.2-0.1-0.3c-0.1-0.1-0.2-0.2-0.3-0.2c-0.1,0-0.2,0-0.3,0.1
			C18.9,30,18.9,30.1,18.9,30.3z"/>
		<path id="XMLID_4_" class="st6" d="M12.3,30.4c-0.1,0-0.2,0.1-0.4,0.1c-0.1,0-0.2,0-0.2,0.1c0,0-0.1,0-0.1,0.1c0,0,0,0.1,0,0.1
			c0,0.1,0,0.1,0.1,0.2c0.1,0,0.1,0.1,0.2,0.1c0.1,0,0.2,0,0.3-0.1c0.1,0,0.1-0.1,0.2-0.2C12.3,30.7,12.3,30.6,12.3,30.4L12.3,30.4z
			"/>
	</g>
	<g id="XMLID_46_">
		<circle id="XMLID_3_" class="st7" cx="27.5" cy="21.5" r="0.8"/>
		<circle id="XMLID_2_" class="st4" cx="27.5" cy="21.5" r="0.6"/>
		<text id="XMLID_1_" transform="matrix(1 0 0 1 27.1133 21.9259)" class="st8 st9 st10">R</text>
	</g>
</g>
</svg>
