<?xml version="1.0" encoding="utf-8"?>
<!-- Generator: Adobe Illustrator 19.0.0, SVG Export Plug-In . SVG Version: 6.00 Build 0)  -->
<svg version="1.1" id="Capa_1" xmlns="http://www.w3.org/2000/svg" xmlns:xlink="http://www.w3.org/1999/xlink" x="0px" y="0px"
	 viewBox="0 0 32 32" style="enable-background:new 0 0 32 32;" xml:space="preserve">
<style type="text/css">
	.st0{fill-rule:evenodd;clip-rule:evenodd;fill:#BF0024;}
</style>
<path id="XMLID_26_" class="st0" d="M30.5,18.8c0-0.3,0.3-0.5,0.6-0.5c0.3,0,0.6,0.2,0.6,0.5c0,0.3-0.3,0.5-0.6,0.5
	C30.7,19.4,30.5,19.1,30.5,18.8L30.5,18.8z M31,19.3c0.3,0,0.5-0.2,0.5-0.5c0-0.3-0.2-0.5-0.5-0.5c-0.3,0-0.5,0.2-0.5,0.5
	C30.5,19.1,30.7,19.3,31,19.3L31,19.3z"/>
<path id="XMLID_23_" class="st0" d="M30.9,18.6h0.2c0,0,0,0,0.1,0c0,0,0,0,0,0.1c0,0,0,0.1,0,0.1c0,0-0.1,0-0.1,0h-0.2V18.6
	L30.9,18.6z M30.9,19.2v-0.3h0.2c0,0,0.1,0,0.1,0c0,0,0,0,0,0.1l0,0.1c0,0,0,0,0,0.1c0,0,0,0,0,0h0.1v0c0,0,0,0,0,0c0,0,0,0,0-0.1
	l0-0.1c0,0,0-0.1,0-0.1c0,0,0,0-0.1,0c0,0,0,0,0.1-0.1c0,0,0-0.1,0-0.1c0-0.1,0-0.1-0.1-0.2c0,0-0.1,0-0.1,0h-0.3L30.9,19.2
	L30.9,19.2L30.9,19.2z"/>
<path id="XMLID_14_" class="st0" d="M3.2,15c0-0.2,0.2-0.3,0.4-0.3l2.9,0l0.3-1.7H2.7c-0.7,0-1,0.4-1,0.8l-0.8,4.3
	c-0.1,0.6,0.1,1.2,0.8,1.2h4L6,17.7l-3.1,0c-0.1,0-0.2-0.1-0.2-0.2L3.2,15L3.2,15z M8.2,17.4c0,0.1,0,0.2,0.2,0.2l1.9,0
	c0.2,0,0.3-0.2,0.4-0.3l0-0.1l0,0L11,15c0-0.1,0-0.2-0.2-0.2l-1.9,0c-0.2,0-0.3,0.2-0.4,0.3L8.2,17.4L8.2,17.4z M12.1,18.5
	c-0.1,0.4-0.4,0.8-1,0.8H7.2c-0.7,0-0.9-0.6-0.8-1.2l0.8-4.3c0.1-0.4,0.4-0.8,1-0.8h3.9c0.7,0,1,0.6,0.8,1.2L12.1,18.5L12.1,18.5z
	 M17.7,17.8l-3.2,0l-0.3,1.5h-1.7l0.4-2.1l0,0l0.8-4.2l4.8,0c0.7,0,1,0.6,0.8,1.2L18.8,17C18.7,17.5,18.2,17.8,17.7,17.8L17.7,17.8z
	 M20.9,17.4c0,0.1,0,0.2,0.2,0.2l4,0l-0.3,1.6l-4.8,0c-0.7,0-0.9-0.6-0.8-1.2l0.8-4.3c0.1-0.4,0.4-0.8,1-0.8h3.9
	c0.7,0,1,0.6,0.8,1.2L25.1,17l-4.1,0L20.9,17.4L20.9,17.4z M25.4,18.2c-0.1,0.6,0.1,1.2,0.8,1.2h4l0.3-1.6l-3.1,0
	c-0.1,0-0.2-0.1-0.2-0.2l0-0.2l0,0l0.4-2.2c0-0.2,0.2-0.3,0.4-0.3l2.9,0l0.3-1.7h-4.1c-0.7,0-1,0.4-1,0.8L25.4,18.2L25.4,18.2z
	 M14.8,16.2l2.1,0c0.2,0,0.3-0.2,0.4-0.3l0.2-0.9c0-0.1,0-0.2-0.2-0.2l-2.2,0L14.8,16.2L14.8,16.2z M23.6,15.5l0.1-0.6
	c0-0.1,0-0.2-0.2-0.2l-1.9,0c-0.2,0-0.3,0.2-0.4,0.3l-0.1,0.5L23.6,15.5L23.6,15.5z"/>
</svg>
