<?xml version="1.0" encoding="utf-8"?>
<!-- Generator: Adobe Illustrator 19.0.0, SVG Export Plug-In . SVG Version: 6.00 Build 0)  -->
<svg version="1.1" id="Capa_1" xmlns="http://www.w3.org/2000/svg" xmlns:xlink="http://www.w3.org/1999/xlink" x="0px" y="0px"
	 viewBox="0 0 32 32" style="enable-background:new 0 0 32 32;" xml:space="preserve">
<style type="text/css">
	.st0{fill:none;stroke:#040600;}
	.st1{fill:#E7C000;}
	.st2{fill:#00376C;}
</style>
<path id="XMLID_28_" class="st0" d="M16.2,13.9"/>
<path id="XMLID_27_" class="st1" d="M14.1,6.1c0,0-2.2,0.7-2.3,2.7c-0.1,2,2.4,2.7,2.4,2.7s2.3,0.5,1.5,2.4c0,0-3.5,0.3-5.7-3.3
	c-2.2-3.5,0.1-5.3,1.8-5.2c1.8,0.1,2.5,0.6,3.8,0.6c1.4,0,3-0.7,4.2-0.6c1.2,0,2.5,1.1,2.3,2.5c-0.1,1.4-1.5,5.2-6.1,6
	c0,0,2.3-1.1,2.3-2.9c-0.1-1.8-1.9-2.3-2.9-2.2c-0.9,0.1-2.4,0.1-2.5-1.3C13.1,6.8,14.1,6.1,14.1,6.1z"/>
<polygon id="XMLID_25_" class="st2" points="2,14.4 0.9,13.8 4,13.8 3.2,19 5.1,19 4.8,20.7 1,20.7 "/>
<polygon id="XMLID_24_" class="st2" points="14,20.7 14.8,16 14.1,15.6 16.8,15.6 15.9,20.7 "/>
<polygon id="XMLID_22_" class="st2" points="5.5,20.8 6.3,16.1 5.6,15.7 8.3,15.7 7.4,20.8 "/>
<g id="XMLID_41_">
	<path id="XMLID_42_" class="st2" d="M12.4,15.5c-1,0-1.6,0.7-1.6,0.7l0.1-0.6H8.6l0.5,0.3L8,23.2h1.9l0.3-2.3
		c3,0.2,3.6-2.2,3.7-3.4C14,16.2,13.4,15.5,12.4,15.5z M11,19.3c-0.7,0-0.5,0-0.5,0s0.2-2.3,1.1-2.3S11.7,19.3,11,19.3z"/>
</g>
<g id="XMLID_36_">
	<g id="XMLID_37_">
		<path id="XMLID_38_" class="st2" d="M26.1,15.6h-2.7l-0.2,1.5l2,0c0.2,0.1,0,0.4,0,0.4c-3,0-3.1,1.9-3.1,2.2
			c0,0.3,0.2,1.2,1.3,1.2s1.6-0.7,1.6-0.7L25,20.7h2.3l-0.6-0.3l0.6-3.8C27.5,15.5,26.1,15.6,26.1,15.6z M24,19.2
			c0-0.7,1.1-0.6,1.1-0.6C25.2,19.3,24,19.8,24,19.2z"/>
	</g>
</g>
<g id="XMLID_31_">
	<path id="XMLID_32_" class="st2" d="M20.7,15.6c0,0-0.4-0.1-1.1-0.1c-0.6,0-2.5,0.2-2.7,2.2c0,0-0.2,0.6,0.6,1.1
		c0,0-1.5,0.9-0.4,1.8c0,0-0.8,0.5-0.9,1.4c0,0.9,0.8,1.2,2,1.2c1.2,0,3.2-0.6,3.3-2.5c0,0,0.2-1.2-1.8-1.2l-0.8,0
		c0,0-0.2,0-0.2-0.2c0-0.2,0.2-0.2,0.2-0.2l0.6,0c0,0,1.8,0.1,2.2-2h0.7l0.2-1.5L20.7,15.6z M19.3,20.9c0,0,0.3,0,0.3,0.4
		c0,0.4-0.5,0.6-0.9,0.6c-0.3,0-0.7-0.1-0.7-0.4c0-0.3,0.2-0.5,0.3-0.5L19.3,20.9z M19.4,17.9c-0.3,0-0.6-0.2-0.6-0.5
		c0-0.3,0.3-0.5,0.6-0.5c0.3,0,0.6,0.2,0.6,0.5C20,17.7,19.7,17.9,19.4,17.9z"/>
</g>
<path id="XMLID_13_" class="st2" d="M27.9,17.4c0.4-2.4,3.5-1.9,3.5-1.9L31.1,17c0,0-1.2-0.3-1.2,0.1c0,0.4,1.3,0.4,1.4,1.7
	c0,1.4-1.8,2.4-3.8,1.9l0.3-1.4c0,0,1.4,0.4,1.4-0.1C29.3,18.7,27.7,18.8,27.9,17.4z"/>
</svg>
