<?xml version="1.0" encoding="utf-8"?>
<!-- Generator: Adobe Illustrator 19.0.0, SVG Export Plug-In . SVG Version: 6.00 Build 0)  -->
<svg version="1.1" id="Capa_1" xmlns="http://www.w3.org/2000/svg" xmlns:xlink="http://www.w3.org/1999/xlink" x="0px" y="0px"
	 viewBox="0 0 32 32" style="enable-background:new 0 0 32 32;" xml:space="preserve">
<style type="text/css">
	.st0{fill-rule:evenodd;clip-rule:evenodd;fill:#00804E;}
	.st1{fill-rule:evenodd;clip-rule:evenodd;fill:#F1D041;}
	.st2{fill-rule:evenodd;clip-rule:evenodd;fill:#FFFFFF;}
</style>
<rect id="XMLID_6_" x="11.6" y="8.9" class="st0" width="8.9" height="5.6"/>
<rect id="XMLID_44_" x="11.6" y="6.3" class="st1" width="8.9" height="2.2"/>
<path id="XMLID_20_" class="st0" d="M10.8,17.3l0.1-0.4h-0.1H8.1l-0.2,0.8h0.9l-0.6,2.2h1l0.6-2.2h0.9L10.8,17.3z M12.6,18.2
	c0.3,0,0.4-0.1,0.5-0.3c0.1-0.2-0.1-0.3-0.3-0.3h-0.2h-0.3l-0.2,0.6H12.6C12.5,18.2,12.6,18.2,12.6,18.2z M12.6,19.4
	C12.6,19.4,12.6,19.4,12.6,19.4c0.1-0.3,0.1-0.4,0-0.5c-0.1,0-0.2-0.1-0.4-0.1h-0.3l-0.3,1h-0.9h-0.1l0.1-0.4l0.7-2.6h1.1h0.3
	c1,0,1.2,0.3,1.1,0.8c-0.1,0.3-0.3,0.6-0.7,0.7c0.3,0.1,0.5,0.2,0.3,0.8c-0.1,0.4-0.2,0.5,0,0.5l0,0.1h-0.9h-0.1
	C12.5,19.8,12.5,19.7,12.6,19.4z M16,16.9c0.1,0,0.3,0,0.4,0c1.1,0,1.4,0.8,1.1,1.6c-0.2,0.8-0.9,1.4-1.6,1.5c-0.1,0-0.3,0-0.5,0
	c-0.9,0-1.4-0.6-1.1-1.6C14.7,17.6,15.3,17.1,16,16.9z M16,19.2c0.3-0.1,0.5-0.4,0.6-0.8c0.1-0.4,0.1-0.8-0.4-0.8
	c-0.1,0-0.2,0-0.2,0c-0.3,0.1-0.5,0.5-0.6,0.8c-0.1,0.4-0.1,0.9,0.3,0.9C15.9,19.3,16,19.2,16,19.2z M19.5,18.7c0.3,0,0.5,0,0.5,0.3
	c-0.1,0.2-0.2,0.3-0.5,0.3c0,0,0,0,0,0h-0.4l0.2-0.5H19.5C19.5,18.7,19.5,18.7,19.5,18.7z M19.5,17.6h0.3c0.2,0,0.4,0,0.3,0.2
	c0,0.2-0.2,0.3-0.4,0.3h-0.2h-0.2L19.5,17.6L19.5,17.6z M19.5,19.9c0.7,0,1.2-0.3,1.3-0.9c0.1-0.3,0-0.6-0.3-0.7
	c0.2-0.1,0.5-0.3,0.6-0.6c0.2-0.6-0.3-0.8-1-0.8h-0.6h-0.8l-0.8,3h1.5C19.4,19.9,19.5,19.9,19.5,19.9z M23.2,18.2
	c0.3,0,0.4-0.1,0.5-0.3c0.1-0.2-0.1-0.3-0.3-0.3h-0.2h-0.3l-0.2,0.6H23.2C23.2,18.2,23.2,18.2,23.2,18.2z M24.6,17.8
	C24.6,17.8,24.6,17.8,24.6,17.8c0.1-0.3,0.1-0.5,0-0.6c-0.1-0.2-0.5-0.3-1.1-0.3h-0.3h-1.1l-0.8,3h1l0.3-1h0.3c0.2,0,0.3,0,0.4,0.1
	c0.1,0.1,0.1,0.2,0,0.5c0,0,0,0,0,0.1c-0.1,0.2-0.1,0.4-0.1,0.5h0.1h0.9l0-0.1c-0.1,0-0.1-0.1,0-0.5c0.2-0.6,0-0.7-0.3-0.8
	C24.3,18.4,24.5,18.1,24.6,17.8z M31.4,17.8c0.1-0.5-0.2-0.9-1-0.9c-0.8,0-1.4,0.3-1.6,1c-0.3,1.1,1.5,0.8,1.4,1.3
	c0,0.1-0.2,0.2-0.5,0.2c-0.1,0-0.2,0-0.3-0.1c-0.1-0.1-0.1-0.1-0.1-0.2h-0.9c-0.1,0.5,0.3,1,1,1c0.8,0,1.5-0.3,1.7-1
	c0.3-1.1-1.5-0.8-1.4-1.3c0-0.1,0.1-0.2,0.4-0.2c0.1,0,0.2,0,0.2,0.1c0.1,0,0.1,0.1,0.1,0.2H31.4z M26.4,17L26.4,17l1.1-0.1l0.2,3
	h-1v-0.4h-0.3h-0.7l-0.2,0.4h-0.9h-0.1l0.1-0.1L26.4,17z M26.4,18.9h0.3l0-1.1l-0.3,0.5l-0.3,0.5H26.4z M2.8,17.6L2.8,17.6l-0.3,0
	l-0.2,0.7l0.5,0v0c0.2,0,0.4-0.1,0.4-0.3C3.3,17.7,3,17.6,2.8,17.6L2.8,17.6z M2.8,19L2.8,19c-0.1,0-0.1,0-0.2,0H2.2l-0.3,0.9h-1
	l0.9-3h1v0h0.4c0.9,0,1.2,0.4,1,1C4,18.5,3.6,18.9,2.8,19z M6.7,19.9H4.2l0.8-3h2.4l-0.2,0.7H5.9L5.7,18H7l-0.2,0.7H5.6l-0.1,0.5
	h1.5L6.7,19.9z"/>
<path id="XMLID_15_" class="st2" d="M14,10.1h0.7c0.1,0,0.3,0.1,0.3,0.3c0,0.2-0.2,0.4-0.4,0.4h-0.8L14,10.1z M13.7,11.4h0.6
	c0.3,0,0.3,0.1,0.4,0.2c0,0.1,0,0.2,0,0.3c0,0.1-0.1,0.3-0.5,0.3h-0.7C13.5,12.1,13.7,11.4,13.7,11.4z M17.7,10.2h0.7
	c0.3,0,0.3,0.2,0.3,0.3c0,0.2-0.1,0.4-0.5,0.4h-0.7C17.5,10.9,17.7,10.2,17.7,10.2z M20.5,9.5V8.4h-8.9v1.1h1.7l-0.9,3.3h1.9
	c0.8,0,1-0.2,1.2-0.3c0.2-0.2,0.4-0.6,0.2-1c-0.1-0.2-0.3-0.4-0.3-0.4c0.3-0.1,0.4-0.4,0.4-0.4c0.1-0.2,0.2-0.6-0.1-0.9
	c-0.2-0.2-0.6-0.3-0.9-0.3h2.1l-1,3.3h1l0.4-1.2h0.6c0.4,0,0.4,0.2,0.4,0.4l0,0.9l0.9,0c0,0,0-1,0-1.1c0-0.3-0.2-0.4-0.3-0.4
	c0.3-0.1,0.5-0.3,0.6-0.5c0.1-0.2,0.2-0.5,0.1-0.8c-0.2-0.4-0.6-0.5-0.9-0.5H20.5z"/>
</svg>
