<?xml version="1.0" encoding="utf-8"?>
<!-- Generator: Adobe Illustrator 19.0.0, SVG Export Plug-In . SVG Version: 6.00 Build 0)  -->
<svg version="1.1" id="Capa_1" xmlns="http://www.w3.org/2000/svg" xmlns:xlink="http://www.w3.org/1999/xlink" x="0px" y="0px"
	 viewBox="0 0 32 32" style="enable-background:new 0 0 32 32;" xml:space="preserve">
<style type="text/css">
	.st0{fill:#BF0411;}
	.st1{fill:#BF0024;}
	.st2{fill:#F5D933;}
</style>
<g id="XMLID_28_">
	<path id="XMLID_42_" class="st0" d="M20.8,26.2c0-0.7-0.3-1.8-2-1.8c0,0,0,0,0,0c-1.4,0-2.1,0.9-2.1,1.6c0,0.9,0.8,1.6,2.1,1.6
		c1.2,0,1.8-0.6,1.9-1h-1.2c0,0.1-0.2,0.4-0.7,0.4c-0.5,0-0.8-0.3-0.8-0.7h0.8H20.8z M17.9,25.6c0-0.2,0.3-0.7,0.9-0.7
		c0.6,0,0.8,0.4,0.9,0.7h-0.9H17.9z"/>
	<polygon id="XMLID_22_" class="st0" points="21.5,23.5 22.8,23.5 22.8,27.5 21.5,27.5 21.5,23.5 	"/>
	<polygon id="XMLID_21_" class="st0" points="23.8,23.5 25.1,23.5 25.1,27.5 23.8,27.5 23.8,23.5 	"/>
	<path id="XMLID_19_" class="st0" d="M14.8,24.3c0.9,0,1.2,0.5,1.3,1.1l0,0v2h-1.2v-1.7v-0.1l0,0c0-0.2-0.1-0.6-0.6-0.6
		c-0.5,0-0.7,0.3-0.8,0.7l0,0v1.6h-1.2v-3.9h1.2v1.3l0,0C13.8,24.6,14.3,24.3,14.8,24.3z"/>
	<path id="XMLID_18_" class="st0" d="M8.5,26.2c-0.1,0.3,0.3,0.7,0.9,0.7c0.6,0,0.9-0.2,0.9-0.5c0-0.3-0.2-0.4-0.8-0.4
		c-1.7,0-2.1-0.4-2.1-1.2c0-0.6,0.4-1.3,2-1.3c1.6,0,2,0.5,2.1,1.3l0,0h-1.3l0,0c0-0.4-0.2-0.7-0.8-0.7s-0.7,0.3-0.7,0.5
		c0,0.2,0.1,0.5,0.7,0.5c1.4,0,2.2,0.2,2.2,1.1c0,0.8-0.6,1.4-2.2,1.4c-1.6,0-2.1-0.5-2.1-1.3l0,0H8.5L8.5,26.2z"/>
	<path id="XMLID_17_" class="st1" d="M16.4,20.8c-0.5,0-1-0.3-1.3-0.8h0l0,0h-4.4l0,0c-0.2,0-0.5-0.2-0.5-0.5l0,0l-0.4-3.3l0,0l0,0
		c-0.4-0.3-3-2.1-3-2.1c0-0.2,0-0.6-0.1-1c0-0.4-0.1-0.8-0.1-1c0-5.4,4.4-9.8,9.8-9.8c5.4,0,9.8,4.4,9.8,9.8c0,0.2,0,0.6-0.1,1
		c0,0.4-0.1,0.8-0.1,1c0,0-2.6,1.8-3,2.1l0,0l0,0l-0.3,3.3l0,0c0,0.2-0.2,0.5-0.5,0.5l0,0h-4.5l0,0l0,0C17.4,20.5,17,20.8,16.4,20.8
		z"/>
	<path id="XMLID_16_" class="st2" d="M17.4,18.3c-0.3,0.2-0.7,0.5-1.1,0.5c-0.4,0-0.8-0.2-1-0.5l0,0h-3.5l0,0
		c-0.1,0-0.1-0.1-0.1-0.1l0,0l-0.2-2.7l0,0c-1.7-1.4-2.9-2.3-2.9-2.3c-0.5-1.3,0.1-2.4,0.2-2.6c0,0,2.7,2.6,5.5,5.3
		c-2.4-2.8-5.3-6.3-5.3-6.3C9,8.3,10,7.5,10.2,7.5c0,0,2.7,4.6,4.8,8.2c-1.9-3.9-4.3-8.9-4.3-8.9c0.6-1.2,1.8-1.6,2-1.6
		c0,0,1.7,5.6,3,10.1c-1-4.6-2.3-10.4-2.3-10.4c1.1-0.8,2.4-0.6,2.5-0.5c0,0,0.2,7,0.4,11c0.2-4,0.4-10.9,0.4-11
		c0.2,0,1.4-0.3,2.6,0.5c0,0-1.3,5.8-2.3,10.4c1.3-4.5,3-10.1,3-10.1c0.2,0,1.4,0.4,2,1.6c0,0-2.4,5-4.3,8.9
		c2.1-3.6,4.8-8.2,4.8-8.2c0.2,0.1,1.2,0.9,1.3,2.3c0,0-2.9,3.5-5.3,6.3c2.8-2.8,5.4-5.3,5.5-5.3c0.1,0.2,0.7,1.3,0.2,2.6
		c0,0-1.2,0.9-2.9,2.3l0,0l-0.2,2.7l0,0c0,0-0.1,0.1-0.2,0.1l0,0H17.4L17.4,18.3z"/>
</g>
</svg>
