<?xml version="1.0" encoding="utf-8"?>
<!-- Generator: Adobe Illustrator 19.0.0, SVG Export Plug-In . SVG Version: 6.00 Build 0)  -->
<svg version="1.1" id="Capa_1" xmlns="http://www.w3.org/2000/svg" xmlns:xlink="http://www.w3.org/1999/xlink" x="0px" y="0px"
	 viewBox="0 0 32 32" style="enable-background:new 0 0 32 32;" xml:space="preserve">
<style type="text/css">
	.st0{fill-rule:evenodd;clip-rule:evenodd;fill:#005695;}
	.st1{fill-rule:evenodd;clip-rule:evenodd;fill:#F5D932;}
	.st2{fill-rule:evenodd;clip-rule:evenodd;}
</style>
<g id="XMLID_8_">
	<polygon id="XMLID_6_" class="st0" points="31.4,22.3 31.4,19.5 1,19.5 1,22.3 31.4,22.3 	"/>
	<polygon id="XMLID_5_" class="st1" points="31.4,19.5 31.4,17.9 1,17.9 1,19.5 31.4,19.5 	"/>
	<path id="XMLID_4_" class="st2" d="M5.4,15.4c0,0,0-2.7,0-2.7s-2.4-2.2-3-2.8c-0.7-0.7-1.4-1-1.4-1h3.8c0,0,0.1,0.4,0.8,1
		C5.7,9.9,6.8,11,6.8,11s1-1,1.3-1.2c0.7-0.7,0.8-1,0.8-1h3.8c0,0-0.7,0.4-1.4,1c-0.2,0.2-3,2.8-3,2.8s0,2.7,0,2.7
		c0,0.7,0.3,1,0.3,1H5.1C5.1,16.4,5.4,16,5.4,15.4L5.4,15.4z"/>
	<path id="XMLID_10_" class="st2" d="M16.4,12.3v-2.1h1.4c1.1,0,1.5,0.4,1.5,1c0,0.6-0.6,1.1-1.7,1.1H16.4L16.4,12.3z M13.1,16.4
		h3.5c0,0-0.3-0.4-0.3-1c0-0.7,0-1.7,0-1.7h2c2.7,0,3.6-1.3,3.6-2.5c0-1.2-0.8-2.4-3.4-2.4h-5.5c0,0,0.3,0.4,0.3,1
		c0,1.8,0,5.3,0,5.5C13.4,16,13.1,16.4,13.1,16.4L13.1,16.4z"/>
	<path id="XMLID_1_" class="st2" d="M23.2,15.4c0-0.2,0-3.7,0-5.5c0-0.7-0.3-1-0.3-1h8.5v1.9c0,0-0.4-0.3-1-0.3c-0.6,0-4.3,0-4.3,0
		v1.7c0,0,2.6,0,3.3,0c0.7,0,1-0.2,1-0.2v1.8c0,0-0.4-0.2-1-0.2c-0.1,0-3.3,0-3.3,0s0,1.2,0,1.9c0,0.7,0.3,1,0.3,1h-3.5
		C22.9,16.4,23.2,16,23.2,15.4L23.2,15.4z"/>
</g>
</svg>
